<svg xmlns="http://www.w3.org/2000/svg" viewBox="140 135 225 220">
    <path
            d="M256 256
       m 0 -10
       a 10 10 0 1 1 0 20
       a 20 20 0 1 1 0 -40
       a 30 30 0 1 1 0 60
       a 40 40 0 1 1 0 -80
       a 50 50 0 1 1 0 100
       a 60 60 0 1 1 0 -120
       a 70 70 0 1 1 0 140
       a 80 80 0 1 1 0 -160
       a 90 90 0 1 1 0 180
       a 100 100 0 1 1 0 -200"
            fill="none"
            stroke="#ff2d95"
            stroke-width="6"
            stroke-linecap="round"/>
</svg>
